<mxfile host="app.diagrams.net" modified="2022-08-15T01:54:59.954Z" agent="5.0 (Windows NT 10.0; Win64; x64) AppleWebKit/537.36 (KHTML, like Gecko) Chrome/81.0.4044.92 Safari/537.36" etag="SNDeSAbB9Jl8iKAvDJib" version="20.2.3" type="github">
  <diagram id="kgvK-_pybiIHuWGEW8ii" name="Page-1">
    <mxGraphModel dx="1635" dy="812" grid="1" gridSize="10" guides="1" tooltips="1" connect="1" arrows="1" fold="1" page="1" pageScale="1" pageWidth="827" pageHeight="1169" math="0" shadow="0">
      <root>
        <mxCell id="0" />
        <mxCell id="1" parent="0" />
        <mxCell id="Lxi5dLNsiARURQMFng-D-1" value="限时免费日期配置" style="rounded=0;whiteSpace=wrap;html=1;" parent="1" vertex="1">
          <mxGeometry x="354" y="130" width="120" height="60" as="geometry" />
        </mxCell>
        <mxCell id="Lxi5dLNsiARURQMFng-D-2" value="" style="endArrow=classic;html=1;rounded=0;exitX=0.5;exitY=1;exitDx=0;exitDy=0;entryX=0.5;entryY=0;entryDx=0;entryDy=0;" parent="1" source="Lxi5dLNsiARURQMFng-D-1" target="Lxi5dLNsiARURQMFng-D-4" edge="1">
          <mxGeometry width="50" height="50" relative="1" as="geometry">
            <mxPoint x="390" y="470" as="sourcePoint" />
            <mxPoint x="414" y="240" as="targetPoint" />
          </mxGeometry>
        </mxCell>
        <mxCell id="Lxi5dLNsiARURQMFng-D-4" value="是否免费?" style="rhombus;whiteSpace=wrap;html=1;" parent="1" vertex="1">
          <mxGeometry x="370" y="230" width="90" height="80" as="geometry" />
        </mxCell>
        <mxCell id="Lxi5dLNsiARURQMFng-D-5" value="" style="endArrow=classic;html=1;rounded=0;exitX=0.5;exitY=1;exitDx=0;exitDy=0;entryX=0.5;entryY=0;entryDx=0;entryDy=0;" parent="1" source="Lxi5dLNsiARURQMFng-D-4" target="Lxi5dLNsiARURQMFng-D-7" edge="1">
          <mxGeometry width="50" height="50" relative="1" as="geometry">
            <mxPoint x="390" y="470" as="sourcePoint" />
            <mxPoint x="414" y="370" as="targetPoint" />
          </mxGeometry>
        </mxCell>
        <mxCell id="Lxi5dLNsiARURQMFng-D-6" value="" style="endArrow=classic;html=1;rounded=0;exitX=1;exitY=0.5;exitDx=0;exitDy=0;entryX=1;entryY=0.5;entryDx=0;entryDy=0;" parent="1" source="Lxi5dLNsiARURQMFng-D-4" target="Lxi5dLNsiARURQMFng-D-7" edge="1">
          <mxGeometry width="50" height="50" relative="1" as="geometry">
            <mxPoint x="460" y="270" as="sourcePoint" />
            <mxPoint x="520" y="410" as="targetPoint" />
            <Array as="points">
              <mxPoint x="560" y="270" />
              <mxPoint x="560" y="430" />
            </Array>
          </mxGeometry>
        </mxCell>
        <mxCell id="Lxi5dLNsiARURQMFng-D-7" value="填写提交基本信息、营业时间、计费信息、Strip支付分账相关处理" style="rounded=0;whiteSpace=wrap;html=1;" parent="1" vertex="1">
          <mxGeometry x="354" y="400" width="120" height="60" as="geometry" />
        </mxCell>
        <mxCell id="Lxi5dLNsiARURQMFng-D-9" value="否" style="rounded=0;whiteSpace=wrap;html=1;" parent="1" vertex="1">
          <mxGeometry x="570" y="330" width="30" height="30" as="geometry" />
        </mxCell>
        <mxCell id="Lxi5dLNsiARURQMFng-D-8" value="是" style="rounded=0;whiteSpace=wrap;html=1;" parent="1" vertex="1">
          <mxGeometry x="380" y="330" width="30" height="30" as="geometry" />
        </mxCell>
        <mxCell id="Lxi5dLNsiARURQMFng-D-12" value="付款" style="rounded=0;whiteSpace=wrap;html=1;" parent="1" vertex="1">
          <mxGeometry x="520" y="330" width="30" height="30" as="geometry" />
        </mxCell>
        <mxCell id="Lxi5dLNsiARURQMFng-D-13" value="" style="endArrow=classic;html=1;rounded=0;exitX=0.5;exitY=1;exitDx=0;exitDy=0;entryX=0.5;entryY=0;entryDx=0;entryDy=0;" parent="1" source="Lxi5dLNsiARURQMFng-D-7" target="Hhx6lWk3t9lcu6jdW9rZ-1" edge="1">
          <mxGeometry width="50" height="50" relative="1" as="geometry">
            <mxPoint x="411" y="495" as="sourcePoint" />
            <mxPoint x="415" y="530" as="targetPoint" />
          </mxGeometry>
        </mxCell>
        <mxCell id="Hhx6lWk3t9lcu6jdW9rZ-1" value="审核&lt;br&gt;" style="rhombus;whiteSpace=wrap;html=1;" parent="1" vertex="1">
          <mxGeometry x="370" y="490" width="90" height="80" as="geometry" />
        </mxCell>
        <mxCell id="Hhx6lWk3t9lcu6jdW9rZ-2" value="" style="endArrow=classic;html=1;rounded=0;exitX=0.5;exitY=1;exitDx=0;exitDy=0;entryX=0.5;entryY=0;entryDx=0;entryDy=0;" parent="1" source="Hhx6lWk3t9lcu6jdW9rZ-1" target="Hhx6lWk3t9lcu6jdW9rZ-3" edge="1">
          <mxGeometry width="50" height="50" relative="1" as="geometry">
            <mxPoint x="424" y="640" as="sourcePoint" />
            <mxPoint x="415" y="640" as="targetPoint" />
          </mxGeometry>
        </mxCell>
        <mxCell id="Hhx6lWk3t9lcu6jdW9rZ-3" value="地图上展示" style="rounded=0;whiteSpace=wrap;html=1;" parent="1" vertex="1">
          <mxGeometry x="355" y="620" width="120" height="60" as="geometry" />
        </mxCell>
        <mxCell id="Hhx6lWk3t9lcu6jdW9rZ-5" value="通过" style="rounded=0;whiteSpace=wrap;html=1;" parent="1" vertex="1">
          <mxGeometry x="380" y="580" width="30" height="30" as="geometry" />
        </mxCell>
        <mxCell id="Hhx6lWk3t9lcu6jdW9rZ-6" value="" style="endArrow=classic;html=1;rounded=0;exitX=1;exitY=0.5;exitDx=0;exitDy=0;entryX=0;entryY=0.5;entryDx=0;entryDy=0;" parent="1" source="Hhx6lWk3t9lcu6jdW9rZ-1" target="Hhx6lWk3t9lcu6jdW9rZ-9" edge="1">
          <mxGeometry width="50" height="50" relative="1" as="geometry">
            <mxPoint x="424" y="470" as="sourcePoint" />
            <mxPoint x="540" y="530" as="targetPoint" />
            <Array as="points" />
          </mxGeometry>
        </mxCell>
        <mxCell id="Hhx6lWk3t9lcu6jdW9rZ-7" value="不通过" style="rounded=0;whiteSpace=wrap;html=1;" parent="1" vertex="1">
          <mxGeometry x="470" y="490" width="50" height="30" as="geometry" />
        </mxCell>
        <mxCell id="Hhx6lWk3t9lcu6jdW9rZ-9" value="告知原因" style="rounded=0;whiteSpace=wrap;html=1;" parent="1" vertex="1">
          <mxGeometry x="570" y="500" width="100" height="60" as="geometry" />
        </mxCell>
        <mxCell id="Hhx6lWk3t9lcu6jdW9rZ-10" value="" style="endArrow=classic;html=1;rounded=0;exitX=0.5;exitY=1;exitDx=0;exitDy=0;entryX=0.5;entryY=0;entryDx=0;entryDy=0;" parent="1" source="Hhx6lWk3t9lcu6jdW9rZ-3" target="Hhx6lWk3t9lcu6jdW9rZ-11" edge="1">
          <mxGeometry width="50" height="50" relative="1" as="geometry">
            <mxPoint x="380" y="680" as="sourcePoint" />
            <mxPoint x="415" y="730" as="targetPoint" />
          </mxGeometry>
        </mxCell>
        <mxCell id="Hhx6lWk3t9lcu6jdW9rZ-11" value="充电与计费" style="rounded=0;whiteSpace=wrap;html=1;" parent="1" vertex="1">
          <mxGeometry x="355" y="730" width="120" height="60" as="geometry" />
        </mxCell>
      </root>
    </mxGraphModel>
  </diagram>
</mxfile>
